# xmcd
# 
# Track frame offsets:
#     150
#     14892
#     41225
#     66512
#     81350
#     96985
#     111945
#     125952
#     138260
#     162350
#     183032
#     215942
#     233152
#     250530
# 
# Disc length: 3686
# 
# Revision: 1
# Processed by: cddbd v1.5.2PL0 Copyright (c) Steve Scherf et al.
# Submitted via: fre:ac v1.0.31
# 
DISCID=d60e640e
DTITLE=Roots of Rhythm - Make It Funky
DYEAR=2000
DGENRE=R&B
TTITLE0=Make It Funky
TTITLE1=Do It ('Til You're Satisfied)
TTITLE2=Dazz
TTITLE3=Do Your Thing
TTITLE4=Brick House
TTITLE5=Happy Feelin'
TTITLE6=Funky Stuff
TTITLE7=It's Your Thing
TTITLE8=I Want to Take You Higher
TTITLE9=Fire
TTITLE10=For the Love of Money
TTITLE11=Cisco Kid
TTITLE12=Express Yourself
TTITLE13=Tear the Roof Off the Sucker
EXTD=
EXTT0=
EXTT1=
EXTT2=
EXTT3=
EXTT4=
EXTT5=
EXTT6=
EXTT7=
EXTT8=
EXTT9=
EXTT10=
EXTT11=
EXTT12=
EXTT13=
PLAYORDER=
